<?xml version="1.0" encoding="utf-8"?>
<!-- Generator: Adobe Illustrator 28.0.0, SVG Export Plug-In . SVG Version: 6.00 Build 0)  -->
<svg version="1.1" id="Layer_1" xmlns="http://www.w3.org/2000/svg" xmlns:xlink="http://www.w3.org/1999/xlink" x="0px" y="0px"
	 viewBox="0 0 512 512" style="enable-background:new 0 0 512 512;" xml:space="preserve">
<style type="text/css">
	.st0{fill-rule:evenodd;clip-rule:evenodd;fill:#633001;}
	.st1{fill:#D1884F;}
	.st2{fill:#FEDC90;}
	.st3{fill:#633001;}
</style>
<path d="M97.79,277.55c-1.19,0-2.04-0.25-2.53-0.74c-0.45-0.49-0.68-1.28-0.68-2.35v-35.74c0-1.07,0.25-1.85,0.74-2.35
	c0.49-0.54,1.32-0.8,2.47-0.8h15.12c5.76,0,10,1.21,12.72,3.64c2.72,2.43,4.07,6.05,4.07,10.86c0,4.77-1.36,8.38-4.07,10.8
	c-2.68,2.39-6.91,3.58-12.72,3.58h-5.86v10c0,1.07-0.25,1.85-0.74,2.35c-0.49,0.49-1.34,0.74-2.53,0.74
	C103.78,277.55,97.79,277.55,97.79,277.55z M111.93,255.51c1.69,0,2.98-0.45,3.89-1.36c0.95-0.91,1.42-2.26,1.42-4.07
	c0-1.85-0.47-3.23-1.42-4.14c-0.91-0.91-2.2-1.36-3.89-1.36h-4.88v10.93C107.05,255.51,111.93,255.51,111.93,255.51z M144.29,278.47
	c-3.87,0-6.98-1.23-9.32-3.7c-2.3-2.51-3.46-6.03-3.46-10.56c0-3.46,0.78-6.48,2.35-9.07c1.61-2.59,3.85-4.59,6.73-5.99
	c2.92-1.44,6.28-2.16,10.06-2.16c3.13,0,5.89,0.35,8.27,1.05c2.43,0.66,4.65,1.63,6.67,2.9v24.69c0,0.78-0.14,1.3-0.43,1.54
	c-0.29,0.25-0.86,0.37-1.73,0.37h-6.3c-0.45,0-0.8-0.06-1.05-0.19c-0.25-0.16-0.45-0.41-0.62-0.74l-0.8-1.85
	c-1.19,1.28-2.63,2.2-4.32,2.78C148.69,278.16,146.67,278.47,144.29,278.47z M148.92,270.08c1.6,0,2.86-0.39,3.77-1.17
	c0.91-0.78,1.36-1.89,1.36-3.33v-9.63c-0.78-0.37-1.77-0.56-2.96-0.56c-2.18,0-3.93,0.76-5.25,2.28c-1.28,1.52-1.91,3.66-1.91,6.42
	C143.92,268.08,145.58,270.08,148.92,270.08z M174.17,277.55c-1.19,0-2.04-0.25-2.53-0.74c-0.49-0.49-0.74-1.28-0.74-2.35v-24.63
	c0-0.74,0.12-1.23,0.37-1.48c0.29-0.29,0.86-0.43,1.73-0.43h6.36c0.49,0,0.86,0.08,1.11,0.25c0.29,0.12,0.45,0.37,0.49,0.74
	l0.31,1.85c1.15-1.15,2.65-2.06,4.51-2.72c1.89-0.7,3.99-1.05,6.3-1.05c3.33,0,6.03,0.95,8.09,2.84c2.06,1.85,3.09,4.61,3.09,8.27
	v16.36c0,1.07-0.25,1.85-0.74,2.35c-0.45,0.49-1.28,0.74-2.47,0.74h-5.99c-1.19,0-2.06-0.25-2.59-0.74
	c-0.49-0.49-0.74-1.28-0.74-2.35V258.9c0-1.23-0.27-2.12-0.8-2.65c-0.54-0.53-1.38-0.8-2.53-0.8c-1.23,0-2.22,0.33-2.96,0.99
	c-0.7,0.66-1.05,1.56-1.05,2.72v15.31c0,1.07-0.25,1.85-0.74,2.35c-0.45,0.49-1.28,0.74-2.47,0.74
	C180.16,277.55,174.17,277.55,174.17,277.55z M225.07,278.47c-5.76,0-10.21-1.34-13.33-4.01c-3.13-2.67-4.69-6.56-4.69-11.67
	c0-3.13,0.72-5.89,2.16-8.27c1.44-2.39,3.52-4.24,6.24-5.56c2.76-1.32,6.01-1.98,9.75-1.98c2.84,0,5.23,0.27,7.16,0.8
	c1.98,0.54,3.72,1.36,5.25,2.47c0.45,0.29,0.68,0.66,0.68,1.11c0,0.33-0.16,0.76-0.49,1.3l-2.53,4.38
	c-0.29,0.58-0.64,0.86-1.05,0.86c-0.25,0-0.64-0.16-1.17-0.49c-1.11-0.7-2.16-1.21-3.15-1.54c-0.95-0.33-2.14-0.49-3.58-0.49
	c-2.06,0-3.72,0.66-5,1.98c-1.23,1.32-1.85,3.13-1.85,5.43c0,2.35,0.64,4.16,1.91,5.43c1.28,1.23,3.03,1.85,5.25,1.85
	c1.32,0,2.51-0.19,3.58-0.56c1.07-0.37,2.16-0.88,3.27-1.54c0.58-0.33,0.99-0.49,1.23-0.49c0.37,0,0.7,0.29,0.99,0.86l2.78,4.75
	c0.21,0.41,0.31,0.74,0.31,0.99c0,0.37-0.25,0.72-0.74,1.05c-1.73,1.11-3.62,1.93-5.68,2.47
	C230.34,278.18,227.91,278.47,225.07,278.47z M254.43,278.47c-3.87,0-6.98-1.23-9.32-3.7c-2.3-2.51-3.46-6.03-3.46-10.56
	c0-3.46,0.78-6.48,2.35-9.07c1.6-2.59,3.85-4.59,6.73-5.99c2.92-1.44,6.28-2.16,10.06-2.16c3.13,0,5.89,0.35,8.27,1.05
	c2.43,0.66,4.65,1.63,6.67,2.9v24.69c0,0.78-0.14,1.3-0.43,1.54c-0.29,0.25-0.86,0.37-1.73,0.37h-6.3c-0.45,0-0.8-0.06-1.05-0.19
	c-0.25-0.16-0.45-0.41-0.62-0.74l-0.8-1.85c-1.19,1.28-2.63,2.2-4.32,2.78C258.83,278.16,256.82,278.47,254.43,278.47z
	 M259.06,270.08c1.61,0,2.86-0.39,3.77-1.17c0.91-0.78,1.36-1.89,1.36-3.33v-9.63c-0.78-0.37-1.77-0.56-2.96-0.56
	c-2.18,0-3.93,0.76-5.25,2.28c-1.28,1.52-1.91,3.66-1.91,6.42C254.06,268.08,255.72,270.08,259.06,270.08z M314.5,275.2
	c0.29,0.33,0.43,0.7,0.43,1.11c0,0.37-0.12,0.68-0.37,0.93c-0.25,0.21-0.58,0.31-0.99,0.31h-9.57c-0.58,0-1.01-0.04-1.3-0.12
	c-0.25-0.12-0.51-0.35-0.8-0.68l-8.4-11.42v9.14c0,1.07-0.25,1.85-0.74,2.35c-0.49,0.49-1.34,0.74-2.53,0.74h-5.99
	c-1.19,0-2.04-0.25-2.53-0.74c-0.45-0.49-0.68-1.28-0.68-2.35v-35.74c0-1.07,0.25-1.85,0.74-2.35c0.49-0.54,1.32-0.8,2.47-0.8h5.99
	c1.19,0,2.04,0.27,2.53,0.8c0.49,0.49,0.74,1.28,0.74,2.35v20.68l8.15-10.62c0.25-0.33,0.51-0.56,0.8-0.68
	c0.29-0.12,0.72-0.19,1.3-0.19h9.57c0.41,0,0.72,0.12,0.93,0.37c0.25,0.21,0.37,0.49,0.37,0.86c0,0.41-0.14,0.78-0.43,1.11
	l-10.56,12.1C303.64,262.36,314.5,275.2,314.5,275.2z M334.55,278.47c-3.46,0-6.54-0.58-9.26-1.73c-2.67-1.15-4.79-2.88-6.36-5.19
	c-1.56-2.3-2.35-5.12-2.35-8.46c0-5.23,1.48-9.22,4.44-11.98c2.96-2.76,7.22-4.14,12.78-4.14c5.43,0,9.55,1.36,12.35,4.07
	c2.84,2.68,4.26,6.4,4.26,11.17c0,2.06-0.91,3.09-2.72,3.09h-19.38c0,1.77,0.66,3.13,1.98,4.07c1.36,0.95,3.4,1.42,6.11,1.42
	c1.69,0,3.09-0.14,4.2-0.43c1.15-0.33,2.3-0.8,3.46-1.42c0.49-0.21,0.82-0.31,0.99-0.31c0.37,0,0.68,0.25,0.93,0.74l2.1,3.95
	c0.21,0.41,0.31,0.72,0.31,0.93c0,0.37-0.25,0.72-0.74,1.05c-1.69,1.11-3.6,1.91-5.74,2.41S337.31,278.47,334.55,278.47z
	 M339.3,259.21c0-1.56-0.45-2.78-1.36-3.64c-0.91-0.86-2.26-1.3-4.07-1.3s-3.19,0.45-4.14,1.36c-0.95,0.86-1.42,2.06-1.42,3.58
	H339.3z M371.57,278.47c-3.46,0-6.73-0.35-9.82-1.05c-3.09-0.74-5.58-1.77-7.47-3.09c-0.7-0.45-1.05-0.93-1.05-1.42
	c0-0.33,0.12-0.68,0.37-1.05l3.03-4.82c0.33-0.49,0.66-0.74,0.99-0.74c0.21,0,0.56,0.14,1.05,0.43c1.52,0.86,3.25,1.56,5.19,2.1
	c1.93,0.54,3.85,0.8,5.74,0.8c1.93,0,3.35-0.29,4.26-0.86c0.95-0.58,1.42-1.5,1.42-2.78c0-1.23-0.51-2.2-1.54-2.9
	c-0.99-0.7-2.86-1.58-5.62-2.65c-4.16-1.56-7.41-3.31-9.75-5.25c-2.3-1.98-3.46-4.65-3.46-8.03c0-4.07,1.46-7.18,4.38-9.32
	c2.92-2.14,6.81-3.21,11.67-3.21c3.37,0,6.26,0.31,8.64,0.93c2.43,0.58,4.49,1.48,6.17,2.72c0.7,0.54,1.05,1.03,1.05,1.48
	c0,0.29-0.12,0.62-0.37,0.99l-3.02,4.82c-0.37,0.49-0.7,0.74-0.99,0.74c-0.21,0-0.56-0.14-1.05-0.43c-2.39-1.56-5.23-2.35-8.52-2.35
	c-1.77,0-3.13,0.29-4.07,0.86c-0.95,0.58-1.42,1.52-1.42,2.84c0,0.91,0.25,1.65,0.74,2.22c0.49,0.58,1.15,1.09,1.98,1.54
	c0.86,0.41,2.18,0.95,3.95,1.61l1.17,0.43c3.05,1.19,5.43,2.35,7.16,3.46c1.77,1.07,3.11,2.41,4.01,4.01
	c0.91,1.56,1.36,3.54,1.36,5.93c0,3.66-1.38,6.58-4.14,8.77C380.9,277.38,376.88,278.47,371.57,278.47z M400.86,277.55
	c-0.62,0-1.09-0.1-1.42-0.31c-0.33-0.21-0.58-0.62-0.74-1.23l-7.96-26.67c-0.08-0.25-0.12-0.43-0.12-0.56
	c0-0.58,0.41-0.86,1.23-0.86H400c0.54,0,0.93,0.1,1.17,0.31c0.25,0.17,0.41,0.45,0.49,0.86L405,263.1l4.2-11.3
	c0.21-0.49,0.41-0.82,0.62-0.99c0.25-0.21,0.66-0.31,1.24-0.31h3.89c0.58,0,0.97,0.1,1.17,0.31c0.25,0.16,0.47,0.49,0.68,0.99
	l4.13,11.3l3.4-14.01c0.12-0.41,0.28-0.7,0.49-0.86c0.2-0.21,0.58-0.31,1.11-0.31h8.21c0.82,0,1.23,0.29,1.23,0.86
	c0,0.12-0.04,0.31-0.12,0.56L427.22,276c-0.16,0.62-0.41,1.03-0.74,1.23c-0.29,0.21-0.74,0.31-1.36,0.31h-6.05
	c-0.58,0-1.01-0.1-1.3-0.31c-0.29-0.25-0.53-0.66-0.74-1.23l-4.07-11.17L408.89,276c-0.16,0.58-0.41,0.99-0.74,1.23
	c-0.29,0.21-0.72,0.31-1.29,0.31C406.85,277.55,400.86,277.55,400.86,277.55z M451.02,278.47c-3.87,0-6.97-1.23-9.32-3.7
	c-2.3-2.51-3.46-6.03-3.46-10.56c0-3.46,0.78-6.48,2.35-9.07c1.6-2.59,3.85-4.59,6.73-5.99c2.92-1.44,6.28-2.16,10.06-2.16
	c3.13,0,5.89,0.35,8.27,1.05c2.43,0.66,4.65,1.63,6.67,2.9v24.69c0,0.78-0.14,1.3-0.43,1.54c-0.29,0.25-0.86,0.37-1.73,0.37h-6.3
	c-0.45,0-0.8-0.06-1.05-0.19c-0.25-0.16-0.45-0.41-0.62-0.74l-0.8-1.85c-1.19,1.28-2.64,2.2-4.32,2.78
	C455.42,278.16,453.41,278.47,451.02,278.47z M455.65,270.08c1.6,0,2.86-0.39,3.77-1.17c0.91-0.78,1.36-1.89,1.36-3.33v-9.63
	c-0.79-0.37-1.77-0.56-2.96-0.56c-2.18,0-3.93,0.76-5.25,2.28c-1.27,1.52-1.91,3.66-1.91,6.42
	C450.65,268.08,452.32,270.08,455.65,270.08z M480.85,290.02c-1.19,0-2.04-0.25-2.53-0.74c-0.45-0.49-0.68-1.28-0.68-2.35v-35.37
	c1.85-1.32,4.18-2.41,6.97-3.27c2.8-0.86,5.72-1.3,8.77-1.3c12.43,0,18.64,5.27,18.64,15.8c0,4.77-1.32,8.58-3.95,11.42
	c-2.64,2.84-6.36,4.26-11.17,4.26c-1.36,0-2.68-0.16-3.95-0.49c-1.23-0.33-2.26-0.78-3.08-1.36v10.31c0,1.07-0.25,1.85-0.74,2.35
	c-0.49,0.49-1.34,0.74-2.53,0.74C486.59,290.02,480.85,290.02,480.85,290.02z M494.24,270.14c1.77,0,3.09-0.66,3.95-1.98
	c0.91-1.36,1.36-3.17,1.36-5.43c0-2.67-0.53-4.55-1.6-5.62c-1.03-1.11-2.64-1.67-4.82-1.67c-1.4,0-2.51,0.19-3.33,0.56v9.82
	c0,1.4,0.39,2.47,1.17,3.21C491.76,269.77,492.85,270.14,494.24,270.14z"/>
<path class="st0" d="M37.92,295.78c-11.69-0.01-21.12-2.82-27.7-7.86c-6.66-5.1-10.19-12.34-10.19-20.53
	c0-7.89,3.53-13.58,7.52-17.43c3.13-3.01,6.58-4.95,8.98-6.06c-0.54-1.67-1.22-3.85-1.83-6.1c-0.81-3.02-1.61-6.56-1.61-9.15
	c0-3.07,0.67-6.15,2.47-8.55c1.91-2.53,4.78-3.89,8.23-3.89c2.7,0,4.99,1,6.78,2.73c1.71,1.65,2.86,3.84,3.64,6.13
	c1.38,4.02,1.92,9.06,2.07,14.1h3.31c0.15-5.04,0.69-10.08,2.08-14.1c0.79-2.29,1.93-4.48,3.64-6.13c1.79-1.73,4.09-2.73,6.78-2.73
	c3.45,0,6.32,1.36,8.23,3.89c1.8,2.4,2.47,5.48,2.47,8.55c0,2.59-0.8,6.13-1.61,9.15c-0.61,2.25-1.28,4.44-1.83,6.1
	c2.4,1.11,5.85,3.04,8.98,6.06c3.99,3.85,7.52,9.54,7.52,17.43c0,8.19-3.53,15.43-10.19,20.53c-6.58,5.04-16,7.85-27.7,7.86H37.92z"
	/>
<path class="st1" d="M23.79,219.13c-5.06,0-7.39,3.81-7.39,9.08c0,4.19,2.71,12.58,3.82,15.85c0.25,0.74-0.14,1.54-0.86,1.82
	c-4.05,1.61-16.02,7.53-16.02,21.07c0,14.26,12.16,25.02,34.58,25.03l0.03,0l0.03,0c22.42-0.02,34.58-10.77,34.58-25.03
	c0-13.54-11.96-19.45-16.02-21.07c-0.72-0.28-1.11-1.09-0.86-1.82c1.11-3.27,3.82-11.66,3.82-15.85c0-5.27-2.33-9.08-7.39-9.08
	c-7.28,0-9.1,10.42-9.23,21.6c-0.01,0.75-0.61,1.35-1.34,1.35h-7.17c-0.74,0-1.34-0.61-1.35-1.35
	C32.88,229.55,31.07,219.13,23.79,219.13z"/>
<path class="st2" d="M37.97,287.43c-16.47,0-34.6-8.91-34.63-20.44v0.05c0,14.27,12.18,25.03,34.63,25.03s34.63-10.76,34.63-25.03
	v-0.05C72.57,278.52,54.44,287.43,37.97,287.43z"/>
<path class="st3" d="M28.82,263.45c0,3.89-1.82,5.92-4.07,5.92s-4.07-2.03-4.07-5.92s1.82-5.92,4.07-5.92S28.82,259.55,28.82,263.45
	z M55.26,263.45c0,3.89-1.82,5.92-4.07,5.92s-4.07-2.03-4.07-5.92s1.82-5.92,4.07-5.92S55.26,259.55,55.26,263.45z"/>
</svg>
